<svg xmlns="http://www.w3.org/2000/svg" xml:space="preserve" id="Layer_1" x="0" y="0" enable-background="new 0 0 336.9 95.5" version="1.1" viewBox="0 0 336.9 95.5">
  <style>
    .st0{fill:#231f20}.st5{fill:#0996c7}
  </style>
  <path d="M250.5 73c-11.6 0-18.9-6.7-18.9-17.6 0-11.2 6.7-18.2 17.4-18.2h.9c1.3 0 3.2 0 5.7.4V24h7.6v47.8c.1-.1-7.2 1.2-12.7 1.2zm-.1-29.9c-7.4 0-10.9 4-10.9 12.1 0 7.3 4.3 11.8 11.2 11.8 1.3 0 2.9-.1 4.9-.3V43.6c-2-.3-3.7-.5-5.2-.5zM146.5 71.9 126 36.2v35.7h-7.1V26.7h10L149.4 62V26.7h7.2v45.2h-10.1zm65.3.7c-3.5 0-7.1-.4-11.3-1.2l-.5-.1V65l.7.1c3.8.8 7 1.5 10.3 1.5 2.6 0 8.8-.4 8.8-4.3 0-3.2-4.2-4.1-7.7-4.7h-.2c-.6-.1-1.2-.2-1.7-.4-5-1.3-10.3-3.2-10.3-9.9 0-6.5 5.2-10.2 14.2-10.2 4.3 0 7.5.5 10 .8l1.2.2v6.1l-.7-.1c-2.9-.5-6.2-1.1-9.4-1.1-3.6 0-7.8.7-7.8 3.8 0 2.6 3.5 3.4 7.5 4.3 5.6 1.2 12.6 2.7 12.6 10.4 0 7-5.7 11.1-15.7 11.1zm72.8 0c-7.9 0-15.1-1.4-15.1-11.4 0-10.9 11.3-10.9 18-10.9.7 0 3.8.1 4.8.2 0-6.1-.1-7.6-9-7.6-3.5 0-7.4.7-10.9 1.3l-.7.1v-6l.4-.1c4-.8 7.9-1.2 11.8-1.2 8.6 0 15.9.9 15.9 11.5v23.2l-.5.1c-5.9.7-10.7.8-14.7.8zm2.6-16.9c-6.5 0-10.5 1-10.5 5.7 0 5.5 5.1 5.9 9.9 5.9 1.8 0 5-.2 6-.3V55.9c-1.3-.1-4.9-.2-5.4-.2zM178.1 72.6c-7.9 0-15.1-1.4-15.1-11.4 0-10.9 11.3-10.9 18-10.9.7 0 3.8.1 4.8.2 0-6.1-.1-7.6-9-7.6-3.5 0-7.4.7-10.9 1.3l-.7.1v-6l.5-.1c3.9-.8 7.8-1.2 11.8-1.2 8.6 0 15.9.9 15.9 11.5v23.2l-.5.1c-6.1.7-10.8.8-14.8.8zm2.6-16.9c-6.5 0-10.5 1-10.5 5.7 0 5.5 5.1 5.9 9.9 5.9 1.8 0 5-.2 6-.3V55.9c-1.3-.1-5-.2-5.4-.2" class="st0"/>
  <defs>
    <filter id="Adobe_OpacityMaskFilter" width="31.7" height="50.4" x="305.1" y="37.2" filterUnits="userSpaceOnUse">
      <feColorMatrix values="1 0 0 0 0 0 1 0 0 0 0 0 1 0 0 0 0 0 1 0"/>
    </filter>
  </defs>
  <mask id="color-nasdaq_svg__a_00000001640671361851911870000001129421209421465511_" width="31.7" height="50.4" x="305.1" y="37.2" maskUnits="userSpaceOnUse">
    <path fill="#fff" d="M303.8 35h33v53h-33V35z" filter="url(#Adobe_OpacityMaskFilter)"/>
  </mask>
  <g mask="url(#color-nasdaq_svg__a_00000001640671361851911870000001129421209421465511_)">
    <path d="M329.1 87.6V72.7c-3 .4-4.5.4-5.8.4-3 0-6.3-.7-8.9-1.8-5.8-2.4-9.2-8.6-9.2-16.4 0-3.9 1-11.1 7.3-15 3.2-1.9 7-2.7 12.7-2.7 2 0 4.8.2 7.4.3l4.3.2v46.4l-7.8 3.5zm-4.5-44.4c-7.7 0-11.6 4-11.6 11.7 0 10 5.8 12.1 10.7 12.1 1.2 0 2.5 0 5.5-.4V43.4c-2.3-.2-3.4-.2-4.6-.2z" class="st0"/>
  </g>
  <defs>
    <filter id="Adobe_OpacityMaskFilter_00000127027304098303504170000015822070975737626784_" width="55.8" height="71.6" x="56.5" y="0" filterUnits="userSpaceOnUse">
      <feColorMatrix values="1 0 0 0 0 0 1 0 0 0 0 0 1 0 0 0 0 0 1 0"/>
    </filter>
  </defs>
  <mask id="color-nasdaq_svg__b_00000010280615113330059310000006690526622673786014_" width="55.8" height="71.6" x="56.5" y="0" maskUnits="userSpaceOnUse">
    <path fill="#fff" d="M54.8 0h59v72h-59V0z" filter="url(#Adobe_OpacityMaskFilter_00000127027304098303504170000015822070975737626784_)"/>
  </mask>
  <g mask="url(#color-nasdaq_svg__b_00000010280615113330059310000006690526622673786014_)">
    <path d="m85.5 0-25 68.4c-.6 1.7-2.2 2.9-4 3.1h26.4c2 0 3.8-1.3 4.5-3.1l25-68.4H85.5z" class="st5"/>
  </g>
  <path d="M54.4 70c1.5 0 2.9-.7 3.7-1.9.1-.1.4-.5.6-1.1l9.2-25.4-5.4-14.8c-.6-1.5-2-2.6-3.7-2.8-1.6-.2-3.2.5-4.2 1.9-.1.1-.4.6-.6 1.1l-9.2 25.3 5.4 14.9c.7 1.7 2.4 2.8 4.2 2.8z" class="st5"/>
  <defs>
    <filter id="Adobe_OpacityMaskFilter_00000096775922337676023510000012794103196095099830_" width="56.1" height="71.4" x="0" y="24.1" filterUnits="userSpaceOnUse">
      <feColorMatrix values="1 0 0 0 0 0 1 0 0 0 0 0 1 0 0 0 0 0 1 0"/>
    </filter>
  </defs>
  <mask id="color-nasdaq_svg__c_00000006684777291066726090000008592552602694550153_" width="56.1" height="71.4" x="0" y="24.1" maskUnits="userSpaceOnUse">
    <path fill="#fff" d="M-2.2 22h59v73.6h-59V22z" filter="url(#Adobe_OpacityMaskFilter_00000096775922337676023510000012794103196095099830_)"/>
  </mask>
  <g mask="url(#color-nasdaq_svg__c_00000006684777291066726090000008592552602694550153_)">
    <path d="M56.1 24.1H29.4c-2 0-3.8 1.2-4.5 3.1L0 95.5h26.9l25-68.3c.6-1.8 2.3-3 4.2-3.1z" class="st5"/>
  </g>
</svg>
