<svg xmlns="http://www.w3.org/2000/svg" xml:space="preserve" viewBox="0 0 268 92">
  <path fill="#fff" d="M92 48.2c0-7.7-4.8-14.5-12-17.1.3-1.6.5-3.3.5-5C80.5 11.7 68.8 0 54.5 0c-8.4 0-16.2 4-21.1 10.8C31 8.9 28.1 7.9 25 7.9c-7.6 0-13.8 6.2-13.8 13.9 0 1.7.3 3.3.9 4.8C4.9 29.2 0 36.1 0 43.8 0 51.5 4.8 58.4 12 61c-.3 1.6-.5 3.3-.5 5 0 14.4 11.6 26 25.9 26 8.4 0 16.2-4.1 21-10.9 2.4 1.9 5.4 3 8.4 3 7.6 0 13.8-6.2 13.8-13.9 0-1.7-.3-3.3-.9-4.8C87.1 62.8 92 55.9 92 48.2z"/>
  <path fill="#fed10a" d="M35.9 39.8 56.2 49l20.4-17.8c.3-1.5.4-2.9.4-4.5C77 14.2 66.8 4 54.2 4c-7.5 0-14.5 3.7-18.8 9.9L32 31.4l3.9 8.4z"/>
  <path fill="#24bbb1" d="M15.4 60.8c-.3 1.5-.4 3-.4 4.5C15 77.9 25.2 88 37.8 88c7.5 0 14.6-3.7 18.8-9.9L60 60.7l-4.5-8.5L35.3 43 15.4 60.8z"/>
  <path fill="#ef5098" d="M14.7 25.7 28.9 29 32 13.2c-1.9-1.4-4.3-2.2-6.8-2.2C19 11 14 15.9 14 22c0 1.2.2 2.5.7 3.7z"/>
  <path fill="#17a8e0" d="M14.4 29C8.3 31 4 37 4 43.6 4 50 7.9 55.7 13.7 58L33 40.3l-3.5-7.7L14.4 29z"/>
  <path fill="#93c83e" d="M60 78.7c1.9 1.4 4.1 2.3 6.4 2.3C72.2 81 77 76.1 77 70c0-1.3-.2-2.6-.6-3.8L63 63l-3 15.7z"/>
  <path fill="#0779a1" d="M63.1 59.4 78.4 63C84.7 61 89 55 89 48.4c0-6.4-4-12.1-9.9-14.4L59 51.6l4.1 7.8z"/>
  <path d="m129 64.4 1.8-.2.1 3.7c-4.8.7-9 1-12.4 1-4.6 0-7.8-1.3-9.7-4-1.9-2.6-2.8-6.8-2.8-12.3 0-11.1 4.4-16.7 13.3-16.7 4.3 0 7.5 1.2 9.6 3.6 2.1 2.4 3.2 6.2 3.2 11.2l-.3 3.6h-20.9c0 3.5.6 6.1 1.9 7.8 1.3 1.7 3.5 2.5 6.6 2.5 3.1.2 6.3.1 9.6-.2zm-1.7-13.7c0-3.9-.6-6.7-1.9-8.2-1.2-1.6-3.3-2.4-6.1-2.4s-4.9.9-6.3 2.5c-1.4 1.7-2.1 4.4-2.2 8.1h16.5zM138 69V23h5v46h-5zm35.1-22.8v15.6c0 1.6 3.9 1.9 3.9 1.9l-.2 4.2c-3.3 0-6 .3-7.7-1.3-3.8 1.7-7.5 2.4-11.3 2.4-2.9 0-5.1-.8-6.6-2.5-1.5-1.6-2.3-4-2.3-7.1 0-3.1.8-5.4 2.3-6.8 1.5-1.4 4-2.4 7.3-2.7l9.8-.9v-2.7c0-2.1-.5-3.7-1.4-4.6s-2.2-1.4-3.8-1.4h-12.3V36h12c3.5 0 6.1.8 7.7 2.5 1.8 1.6 2.6 4.2 2.6 7.7zm-19.3 13c0 3.9 1.6 5.8 4.8 5.8 2.8 0 5.6-.5 8.4-1.4l1.4-.5V52.6l-9.3.9c-1.9.2-3.2.7-4.1 1.6s-1.2 2.3-1.2 4.1zm37.9-19c-4.6 0-7 1.6-7 4.8 0 1.5.5 2.5 1.6 3.2 1.1.6 3.5 1.2 7.3 1.9s6.4 1.6 8 2.8c1.6 1.2 2.3 3.4 2.3 6.7 0 3.3-1.1 5.6-3.2 7.2-2.1 1.5-5.2 2.3-9.2 2.3-2.6 0-11.4-1-11.4-1l.3-4.1c5 .5 8.7.9 11.2.9s4.3-.4 5.6-1.2 2-2.1 2-3.9c0-1.8-.5-3.1-1.6-3.7-1.1-.7-3.5-1.3-7.3-1.9-3.8-.6-6.4-1.4-8-2.6-1.6-1.1-2.3-3.3-2.3-6.4s1.1-5.4 3.3-6.9 4.9-2.2 8.2-2.2c2.6 0 11.6.7 11.6.7V41c-4.8-.4-8.7-.8-11.4-.8zm35.9.6h-10.2v15.1c0 3.6.3 6 .8 7.1.6 1.1 1.8 1.7 3.8 1.7l5.7-.4.3 3.9c-2.9.5-5 .7-6.5.7-3.4 0-5.6-.8-6.9-2.4s-1.9-4.7-1.9-9.2V40.8H208v-4.1h4.6V27h4.8v9.7h10.2v4.1zm6.4-11.4V24h5v5.5l-5-.1zm0 38.6V36.6h5V68h-5zm25.3-32c1.4 0 3.8.3 7.2.8l1.5.2-.2 3.9c-3.4-.4-5.9-.6-7.5-.6-3.6 0-6.1.9-7.3 2.6-1.3 1.7-2 4.9-2 9.5s.6 7.9 1.8 9.7c1.2 1.8 3.7 2.7 7.5 2.7l7.5-.6.2 3.9c-3.9.6-6.9.9-8.9.9-5 0-8.4-1.3-10.3-3.8-1.9-2.5-2.9-6.8-2.9-12.8s1-10.3 3-12.7c2.2-2.5 5.6-3.7 10.4-3.7z"/>
</svg>
