<svg xmlns="http://www.w3.org/2000/svg" xml:space="preserve" viewBox="0 0 376 46">
  <path fill="#ff3008" d="M109.1 13.1v20.3h4.8c1.2 0 2.4-.3 3.5-.8s2.1-1.3 3-2.2c1.7-1.9 2.7-4.5 2.6-7.1 0-1.3-.2-2.6-.6-3.9-.4-1.2-1.1-2.3-2-3.3-.8-.9-1.9-1.7-3-2.2s-2.3-.8-3.6-.8h-4.7zm4.8-6.4c8.9 0 15.7 7.3 15.7 16.5s-6.8 16.5-15.7 16.5h-10.6c-.1 0-.2 0-.3-.1s-.2-.1-.2-.2c-.1-.2-.2-.4-.2-.6V7.6c0-.5.3-.8.8-.8l10.5-.1zm38.6 27.4c4.1 0 7.7-2.6 9.3-6.7.8-2 1-4.2.6-6.2-.4-2.1-1.3-4-2.7-5.6-1.4-1.5-3.2-2.6-5.1-3-2-.4-4-.2-5.8.6-3.7 1.7-6.2 5.6-6.2 10-.1 6 4.4 10.8 9.9 10.9zm0-28.1c9.4 0 16.6 7.8 16.6 17.2 0 9.4-7.2 17.2-16.6 17.2-9.4 0-16.5-7.8-16.5-17.2 0-9.4 7.2-17.2 16.5-17.2zm39.4 28.1c5.5 0 10-4.9 10-10.9s-4.5-10.8-10-10.8-10 4.8-10 10.8c0 2.9 1 5.6 2.9 7.7.9 1 2 1.8 3.2 2.3 1.3.6 2.6.9 3.9.9zm0-28.1c9.4 0 16.5 7.8 16.5 17.2 0 9.5-7.2 17.2-16.5 17.2s-16.6-7.8-16.6-17.2c0-9.4 7.2-17.2 16.6-17.2zm38.5 7.1h-6.8v8.7h6.8c.5 0 1.1-.1 1.6-.3.5-.2 1-.5 1.3-.9.4-.4.7-.9.9-1.4.2-.5.3-1.1.3-1.7 0-.6-.1-1.2-.3-1.7-.2-.5-.5-1.1-.9-1.5-.4-.4-.8-.7-1.4-1-.4-.1-1-.2-1.5-.2zm-13.3-5.5c0-.5.3-.8.8-.8h12.7c6.1 0 10.4 4.8 10.4 10.8 0 4.1-2.1 7.8-5.4 9.7l5.9 11.2c.2.3.2.6 0 .9l-.3.3c-.1.1-.3.1-.4.1h-5.1c-.1 0-.3 0-.4-.1l-.3-.3-5.6-11.1h-5.7V39c0 .2-.1.4-.2.6-.1.2-.3.2-.5.2h-5c-.2 0-.4-.1-.5-.2-.1-.2-.2-.4-.2-.6l-.2-31.4zm40.9 5.6v20.3h4.8c1.2 0 2.4-.3 3.5-.8s2.1-1.3 3-2.2c1.7-1.9 2.7-4.5 2.6-7.1 0-1.3-.2-2.6-.6-3.9-.4-1.2-1.1-2.3-2-3.3-.8-.9-1.9-1.7-3-2.2-1.1-.5-2.3-.8-3.6-.8H258zm4.8-6.3c8.9 0 15.7 7.3 15.7 16.5s-6.8 16.5-15.7 16.5h-10.5c-.2 0-.4-.1-.5-.2-.1-.2-.2-.4-.2-.6V7.7c0-.5.3-.8.8-.8h10.4zm35.6 8-3.7 10.8h7.4l-3.7-10.8zm-5.9 17-2.4 7.2c0 .2-.1.3-.3.4-.1.1-.3.2-.5.1H284c-.1 0-.3 0-.4-.1l-.3-.3c-.2-.2-.2-.6-.1-.8l11.4-31.3c.1-.2.2-.3.3-.4.1-.1.3-.1.5-.1h5.9c.2 0 .3 0 .5.1.1.1.2.2.3.4l11.4 31.3c.1.3.1.6-.1.8l-.3.3c-.1.1-.3.1-.4.1h-5.3c-.2 0-.3 0-.5-.1-.1-.1-.2-.3-.3-.4l-2.4-7.2h-11.7zm27-16.3c0-5.2 4.1-9.7 10.7-9.7 3.5-.1 6.9 1.3 9.5 3.9.1.1.1.2.2.3.1.2.1.4 0 .7 0 .1-.1.2-.2.3l-2.9 3.1c-.3.3-.7.3-1 .1l-.1-.1c-1.4-1.4-3.2-2.1-5.1-2.2-2.6 0-4.5 1.6-4.5 3.5 0 6.1 15.4 2.6 15.4 14.4 0 6-4.2 10.5-11.5 10.5-2.1 0-4.1-.4-6-1.2-1.9-.8-3.6-2.1-5-3.6-.2-.2-.2-.4-.2-.6 0-.2.1-.4.2-.6l2.8-3.1c.1-.1.2-.1.3-.2.2-.1.4-.1.6 0 .1 0 .2.1.2.2 1.8 1.9 4.2 2.9 6.7 2.9 3.3 0 5.4-1.9 5.4-4.3 0-6-15.5-2.4-15.5-14.3zm50-8.1v12.4h-13.1V7.5c0-.2-.1-.4-.2-.6-.1-.2-.3-.2-.5-.2h-5c-.2 0-.4.1-.5.2-.1.2-.2.4-.2.6v31.3c0 .5.3.8.8.8h5c.2 0 .4-.1.5-.2.1-.2.2-.4.2-.6V26.3h13.1v12.6c0 .5.3.8.8.8h5c.2 0 .4-.1.5-.2.1-.2.2-.4.2-.6V7.5c0-.2-.1-.4-.2-.6-.1-.2-.3-.2-.5-.2h-5c-.2 0-.4.1-.5.2-.3.2-.4.4-.4.6zM74.7 10.9C71.3 4.2 64.6 0 57.2 0H1.9c-.4 0-.7.1-1 .3-.4.3-.6.6-.8.9C0 1.6 0 2 0 2.4c.1.4.3.7.5 1L12.6 16c1.1 1.1 2.5 1.7 4 1.7h39c2.8 0 5.1 2.3 5.1 5.2 0 2.9-2.2 5.3-5 5.3H28.9c-.8 0-1.5.5-1.8 1.2-.1.4-.2.8-.1 1.1.1.4.3.7.5 1l12.1 12.6c1.1 1.1 2.5 1.7 4 1.7h12.2c15.8.2 27.8-17.4 18.9-34.9"/>
</svg>
