<?xml version="1.0" encoding="utf-8"?>
<!-- Generator: Adobe Illustrator 27.5.0, SVG Export Plug-In . SVG Version: 6.00 Build 0)  -->
<svg version="1.1" id="Layer_1" xmlns="http://www.w3.org/2000/svg" xmlns:xlink="http://www.w3.org/1999/xlink" x="0px" y="0px"
	 width="150px" height="55px" viewBox="0 0 150 55" style="enable-background:new 0 0 150 55;" xml:space="preserve">
<style type="text/css">
	.st0{clip-path:url(#SVGID_00000083783888304493150660000010031243807758538169_);}
	.st1{fill:#262A38;}
	.st2{fill:#FF694A;}
</style>
<g>
	<defs>
		<rect id="SVGID_1_" y="11" width="150" height="32.7"/>
	</defs>
	<clipPath id="SVGID_00000054965238873935481410000005259649917320210325_">
		<use xlink:href="#SVGID_1_"  style="overflow:visible;"/>
	</clipPath>
	<g style="clip-path:url(#SVGID_00000054965238873935481410000005259649917320210325_);">
		<path class="st1" d="M56.5,16v22.4h-4.5v-2.3c-0.5,0.8-1.2,1.5-2,1.9C49,38.4,48,38.6,47,38.6c-1.2,0-2.5-0.3-3.5-1
			c-1.1-0.7-1.9-1.7-2.4-2.8c-0.6-1.3-0.9-2.8-0.9-4.2c0-1.5,0.3-2.9,0.9-4.2c0.5-1.1,1.4-2.1,2.4-2.8c1.1-0.7,2.3-1,3.6-1
			c1,0,2,0.2,2.8,0.7c0.8,0.4,1.5,1,2,1.8v-7.5L56.5,16L56.5,16z M51,34c0.6-0.8,0.9-1.9,0.9-3.3c0-1.5-0.3-2.5-0.9-3.3
			c-0.6-0.8-1.6-1.2-2.6-1.2c-1-0.1-2,0.4-2.6,1.2c-0.6,0.8-0.9,1.9-0.9,3.3c0,1.4,0.3,2.6,0.9,3.4c0.6,0.8,1.6,1.2,2.6,1.2
			C49.5,35.1,50.4,34.7,51,34z M72.7,23.6c1.1,0.7,1.9,1.7,2.4,2.8c0.6,1.3,0.9,2.7,0.9,4.2c0,1.5-0.3,2.9-0.9,4.2
			c-0.5,1.2-1.4,2.1-2.4,2.8c-1,0.7-2.3,1-3.5,1c-1,0-2-0.2-2.9-0.7c-0.8-0.4-1.5-1.1-2-1.9v2.3h-4.6V17.5l4.6-1.5v9.1
			c0.4-0.8,1.1-1.5,2-1.9c0.9-0.5,1.9-0.7,2.9-0.7C70.3,22.6,71.6,22.9,72.7,23.6L72.7,23.6z M70.4,33.9c0.6-0.8,0.9-1.9,0.9-3.4
			c0-1.5-0.3-2.5-0.9-3.3c-0.6-0.8-1.5-1.2-2.6-1.2c-1-0.1-2,0.4-2.6,1.2c-0.6,0.8-0.9,1.9-0.9,3.3c0,1.4,0.3,2.6,0.9,3.3
			c0.6,0.8,1.6,1.2,2.6,1.2C68.8,35.2,69.8,34.7,70.4,33.9z M82.2,26.4h3.9V23h-3.9v-5.1l-4.6,1.5v13.1c0,2,0.5,3.5,1.5,4.5
			c1,1.1,2.5,1.6,4.4,1.6c0.9,0,1.8-0.1,2.6-0.4v-3.6c-0.5,0.1-1,0.2-1.5,0.2c-0.7,0-1.3-0.2-1.7-0.6c-0.4-0.4-0.7-1-0.7-1.9
			L82.2,26.4L82.2,26.4z M56.5,16v22.4h-4.5v-2.3c-0.5,0.8-1.2,1.5-2,1.9C49,38.4,48,38.6,47,38.6c-1.2,0-2.5-0.3-3.5-1
			c-1.1-0.7-1.9-1.7-2.4-2.8c-0.6-1.3-0.9-2.8-0.9-4.2c0-1.5,0.3-2.9,0.9-4.2c0.5-1.1,1.4-2.1,2.4-2.8c1.1-0.7,2.3-1,3.6-1
			c1,0,2,0.2,2.8,0.7c0.8,0.4,1.5,1,2,1.8v-7.5L56.5,16L56.5,16z M51,34c0.6-0.8,0.9-1.9,0.9-3.3s-0.3-2.5-0.9-3.3
			c-0.6-0.8-1.6-1.2-2.6-1.2c-1-0.1-2,0.4-2.6,1.2c-0.6,0.8-0.9,1.9-0.9,3.3s0.3,2.6,0.9,3.4c0.6,0.8,1.6,1.2,2.6,1.2
			C49.5,35.1,50.4,34.7,51,34z M72.7,23.6c1.1,0.7,1.9,1.7,2.4,2.8c0.6,1.3,0.9,2.7,0.9,4.2c0,1.5-0.3,2.9-0.9,4.2
			c-0.5,1.2-1.4,2.1-2.4,2.8c-1,0.7-2.3,1-3.5,1c-1,0-2-0.2-2.9-0.7c-0.8-0.4-1.5-1.1-2-1.9v2.3h-4.6V17.5l4.6-1.5v9.1
			c0.4-0.8,1.1-1.5,2-1.9c0.9-0.5,1.9-0.7,2.9-0.7C70.3,22.6,71.6,22.9,72.7,23.6L72.7,23.6z M70.4,33.9c0.6-0.8,0.9-1.9,0.9-3.4
			c0-1.5-0.3-2.5-0.9-3.3c-0.6-0.8-1.5-1.2-2.6-1.2c-1-0.1-2,0.4-2.6,1.2c-0.6,0.8-0.9,1.9-0.9,3.3c0,1.4,0.3,2.6,0.9,3.3
			c0.6,0.8,1.6,1.2,2.6,1.2C68.8,35.2,69.8,34.7,70.4,33.9z M82.2,26.4h3.9V23h-3.9v-5.1l-4.6,1.5v13.1c0,2,0.5,3.5,1.5,4.5
			c1,1.1,2.5,1.6,4.4,1.6c0.9,0,1.8-0.1,2.6-0.4v-3.6c-0.5,0.1-1,0.2-1.5,0.2c-0.7,0-1.3-0.2-1.7-0.6c-0.4-0.4-0.7-1-0.7-1.9
			L82.2,26.4L82.2,26.4z M128.2,23.4c-1.6,0-3.3,0.9-4.6,2l0.1-2.6v-6l-2.5,1.5v20.1h2.2v-1.5c1.3,1.2,2.9,1.9,4.2,1.9
			c3.3,0,6.3-2.9,6.3-7.9C133.9,26.3,131.9,23.4,128.2,23.4L128.2,23.4z M131.3,32.5c-0.1,0.8-0.3,1.5-0.6,2.2
			c-0.1,0.2-0.3,0.5-0.4,0.7c-0.2,0.3-0.5,0.5-0.8,0.7c-0.6,0.3-1.3,0.5-2,0.5h-0.1c-0.6,0-1.3-0.2-1.8-0.5
			c-0.3-0.2-0.6-0.4-0.8-0.7c-0.2-0.2-0.3-0.4-0.4-0.7c-0.4-0.7-0.6-1.5-0.6-2.3c0-0.5-0.1-1-0.1-1.4c0-0.5,0-0.9,0.1-1.4
			c0-0.8,0.3-1.6,0.6-2.3c0.1-0.2,0.2-0.4,0.3-0.5l0.1-0.2c0.2-0.3,0.5-0.5,0.8-0.7c0.6-0.3,1.3-0.5,2-0.5h0.1c0.2,0,0.3,0,0.5,0
			l0.2,0c0.1,0,0.2,0,0.2,0l0.1,0l0.1,0l0.1,0c0.2,0.1,0.4,0.2,0.6,0.3c0.3,0.2,0.6,0.4,0.8,0.7c0.2,0.2,0.3,0.4,0.4,0.7
			c0.5,0.9,0.7,2.4,0.7,3.7C131.3,31.5,131.3,32,131.3,32.5L131.3,32.5z M96.2,36.2V18.7v-1.9l-2.5,1.5v0.3v19.7h11.1v-2.1
			L96.2,36.2L96.2,36.2z M106.2,34.6c0-3.2,2.7-4.8,9-5.4c0-1.9-0.6-3.7-3-3.7c-1.7,0-3.2,0.8-4.4,1.6l-1-1.7
			c1.3-0.9,3.4-1.9,5.7-1.9c3.6,0,5.1,2.4,5.1,6v9h-2.3v-1.7c-1.4,1.2-3.1,2.1-4.9,2.1C108.1,38.7,106.3,37.2,106.2,34.6L106.2,34.6
			z M115.2,33.6c0-0.4-0.1-0.7-0.2-1.1c-0.2-0.3-0.4-0.6-0.7-0.9c-0.3-0.2-0.5-0.4-0.9-0.5c-0.4-0.1-0.8,0-1.2,0.1
			c-2.6,0.7-3.5,1.7-3.5,3.1c0,1.7,1.1,2.3,2.6,2.3c1.1,0,2-0.4,3-1.1c0.3-0.2,0.5-0.5,0.7-0.9C115.1,34.4,115.2,34,115.2,33.6
			L115.2,33.6z M135.1,36.7l1.2-1.6c1.3,1,2.6,1.7,4.3,1.7c1.9,0,2.9-1,2.9-2.3c0-1.5-1.7-2.2-3.3-2.8c-2-0.7-4.4-1.8-4.4-4.2
			c0-2.5,1.9-4.1,5-4.1c1.7,0,3.3,0.6,4.5,1.6l-1.2,1.6c-1-0.7-2-1.3-3.3-1.3c-1.8,0-2.7,1-2.7,2.1c0,1.4,1.6,1.9,3.2,2.5
			c2.1,0.8,4.4,1.6,4.4,4.4c0,2.4-1.9,4.3-5.3,4.3C138.5,38.7,136.6,38,135.1,36.7z"/>
		<path class="st2" d="M31.7,12.4c0.8,0.7,1.3,1.7,1.4,2.8c0,0.4-0.1,0.7-0.4,1.3c-0.3,0.6-3.6,6.2-4.5,7.8c-0.6,0.9-0.9,2-0.9,3.1
			s0.3,2.2,0.9,3.1c1,1.6,4.3,7.3,4.5,7.8c0.3,0.6,0.4,0.8,0.4,1.3c-0.1,1.1-0.6,2-1.4,2.8C31,43.1,30,43.6,29,43.7
			c-0.4,0-0.7-0.1-1.3-0.4c-0.5-0.3-6.3-3.5-7.9-4.4c-0.1-0.1-0.2-0.1-0.4-0.2L11.7,34c0.2,1.5,0.8,2.9,1.9,3.9
			c0.2,0.2,0.4,0.4,0.7,0.6c-0.2,0.1-0.4,0.2-0.6,0.3c-1.6,1-7.3,4.3-7.8,4.5c-0.6,0.3-0.8,0.4-1.3,0.4c-1.1-0.1-2-0.6-2.8-1.4
			c-0.8-0.7-1.3-1.7-1.4-2.8c0-0.4,0.1-0.9,0.4-1.3c0.3-0.6,3.6-6.3,4.5-7.8c0.6-0.9,0.9-2,0.9-3.1s-0.3-2.2-0.9-3.1
			c-1-1.6-4.3-7.3-4.5-7.9c-0.2-0.4-0.4-0.8-0.4-1.3c0.1-1.1,0.6-2,1.4-2.8c0.7-0.8,1.7-1.2,2.8-1.4c0.4,0,0.9,0.1,1.3,0.4
			c0.5,0.2,4.6,2.6,6.9,3.9l0.5,0.3c0.2,0.1,0.3,0.2,0.4,0.3l0.2,0.1l7.9,4.7c-0.2-1.8-1.1-3.4-2.5-4.5c0.2-0.1,0.4-0.2,0.6-0.3
			c1.6-1,7.3-4.3,7.8-4.5c0.4-0.2,0.8-0.4,1.3-0.4C30,11.1,31,11.6,31.7,12.4z M17.2,29.5l1.7-1.7c0.2-0.2,0.2-0.6,0-0.8l-1.7-1.7
			c-0.2-0.2-0.6-0.2-0.8,0L14.6,27c-0.2,0.2-0.2,0.6,0,0.8l1.7,1.7C16.5,29.7,16.9,29.7,17.2,29.5z"/>
		<path class="st1" d="M149.6,37l-0.5,1.4H149l-0.5-1.4v1.4h-0.3v-1.9h0.4l0.5,1.4l0.5-1.4h0.4v1.9h-0.3V37z"/>
		<path class="st1" d="M147.9,36.8h-0.5v1.6h-0.3v-1.6h-0.5v-0.3h1.3V36.8z"/>
	</g>
</g>
</svg>
