<svg viewBox="0 0 600.20538 100.6" xmlns="http://www.w3.org/2000/svg"><g transform="translate(132.00536 -224.3)"><path d="m-64.1 324.9c-5.9-.5-8.9-10.3-8.6-22.4.4-12.4 2.9-23.8 9-24.8l2.4-.3c1.3 14.4 6 24.8 13.8 25.6l31.4-.2c-1.5 13.6-6.5 21.4-12 22z" fill="#fff"/><path d="m-64.1 324.9c-5.9-.5-8.9-10.3-8.6-22.4.4-12.4 2.9-23.8 9-24.8l2.4-.3c1.3 14.4 6 24.8 13.8 25.6l31.4-.2c-1.5 13.6-6.5 21.4-12 22z" fill="#adafb2"/><path d="m-101.6 281.8c-3.8-.4-5.8-6.7-5.5-14.5.3-8 1.9-15.3 5.8-16l24.7-3.6c.3-.1.6-.2.9-.2 3.5 0 5.9 7.2 5.4 17.1-.5 10.5-4.1 16.6-7.9 17z" fill="#fff"/><path d="m-101.6 281.8c-3.8-.4-5.8-6.7-5.5-14.5.3-8 1.9-15.3 5.8-16l24.7-3.6c.3-.1.6-.2.9-.2 3.5 0 5.9 7.2 5.4 17.1-.5 10.5-4.1 16.6-7.9 17z" fill="#adafb2"/><path d="m-128.1 248.2c-2.7-.2-4-4.6-3.9-10.1.2-5.6 1.3-10.7 4-11.2l17.3-2.5c.2-.1.4-.1.6-.1 2.5 0 4.1 5.1 3.7 11.9-.4 7.3-2.8 11.6-5.6 11.9z" fill="#fff"/><path d="m-128.1 248.2c-2.7-.2-4-4.6-3.9-10.1.2-5.6 1.3-10.7 4-11.2l17.3-2.5c.2-.1.4-.1.6-.1 2.5 0 4.1 5.1 3.7 11.9-.4 7.3-2.8 11.6-5.6 11.9z" fill="#adafb2"/><path d="m-45.7 296.4c-6.6-.6-9.9-11.4-9.5-24.8.5-13.7 3.2-26.3 9.9-27.5l42.4-6.1c.5-.2 1.1-.3 1.6-.3 6 0 10 12.4 9.2 29.3-.8 18-7 28.5-13.6 29.1z" fill="#fff"/><g fill="#126b95"><path d="m-45.7 296.4c-6.6-.6-9.9-11.4-9.5-24.8.5-13.7 3.2-26.3 9.9-27.5l42.4-6.1c.5-.2 1.1-.3 1.6-.3 6 0 10 12.4 9.2 29.3-.8 18-7 28.5-13.6 29.1z"/><path d="m86.6 298.9 17.1-29.6-15.3-27.3 15.3.1 10.2 21 10.3-21h15.3l-15.3 27.3 17 29.5h-14.8l-12.5-23.1-12.5 23.1z"/><path d="m166.8 280.8c0 1.1 0 2.2.1 3.2s.4 1.8.9 2.6c.5.7 1.3 1.3 2.3 1.7 1.1.4 2.6.6 4.5.6h8.1l1.1 1.1v2.8c0 2.3-.7 3.9-2 4.8s-3.7 1.4-7.1 1.4h-3.4c-3.4 0-6.3-.4-8.6-1-2.3-.7-4.2-1.7-5.6-2.9-1.4-1.3-2.5-2.8-3.1-4.6s-.9-3.8-.9-6v-32.1h-8v-9.1l8-.6 3.4-15.3h10.2v14.8h15.9v10.2h-15.9z"/><path d="m220.8 251.8h-13.6v47.2h-13.6v-56.3c4.5-.3 8.1-.5 10.8-.7 2.7-.1 4.9-.3 6.7-.3 1.8-.1 3.4-.1 4.7-.1h5.1z"/><path d="m232.2 252.4-1.1-1.1v-2.8c0-2.3.7-3.9 2-4.8s3.7-1.4 7.1-1.4h17.1c3.4 0 6.3.4 8.8 1.2 2.4.8 4.4 1.9 6 3.3s2.7 3.1 3.5 5c.7 1.9 1.1 4 1.1 6.2v40.6c-4.5.3-8.4.5-11.5.7s-5.9.3-8.2.3c-2.4.1-4.5.1-6.4.1-1.8 0-3.7 0-5.7 0-3.4 0-6.3-.3-8.6-1s-4.2-1.7-5.6-2.9c-1.4-1.3-2.5-2.8-3.1-4.6s-.9-3.8-.9-6v-7.3c0-2.2.3-4.2.9-6s1.6-3.4 3.1-4.6c1.4-1.2 3.3-2.2 5.6-2.9s5.2-1 8.6-1h4c1 0 2 0 3.1.1s2.4.2 4 .3c1.6.2 4 .4 7.1.7v-2.3c0-1.3-.1-2.5-.3-3.7s-.6-2.2-1.3-3.1-1.7-1.6-3-2.1-3-.8-5.1-.8zm30.6 37v-14.8h-15.8c-1.6 0-2.8.2-3.8.5-.9.3-1.6.8-2.1 1.4s-.8 1.2-.9 1.9-.2 1.5-.2 2.3v2.5c0 .8.1 1.5.2 2.3s.4 1.4.9 2 1.2 1 2.1 1.4c.9.3 2.2.5 3.8.5z"/><path d="m302.6 268.1v30.9h-14.2l.1-70.4h14.2l-.1 28.6h27.3l.1-28.6h14.2l-.1 70.5h-14.2v-31z"/><path d="m374.2 299.1c-3.4 0-6.3-.3-8.6-1s-4.2-1.7-5.6-2.9-2.5-2.8-3.1-4.6-.9-3.8-.9-6v-27.7c0-2.2.3-4.2.9-6s1.6-3.3 3.1-4.6c1.4-1.2 3.3-2.2 5.6-2.9s5.2-1 8.6-1h13.6c3.4 0 6.3.3 8.6 1s4.2 1.7 5.6 2.9c1.4 1.3 2.5 2.8 3.1 4.6s.9 3.8.9 6v27.7c0 2.2-.3 4.2-.9 6s-1.6 3.3-3.1 4.6c-1.4 1.2-3.3 2.2-5.6 2.9s-5.2 1-8.6 1zm9.2-10.2c3.4 0 5.8-.5 7.1-1.6s1.9-2.8 1.9-5.2v-22.7c0-2.3-.6-4.1-1.9-5.2s-3.6-1.7-7-1.7h-4.8c-3.4 0-5.8.5-7.1 1.6s-1.9 2.8-1.9 5.2v22.7c0 2.3.6 4.1 1.9 5.2s3.6 1.7 7 1.7z"/><path d="m449.8 299.7h-2.8c-1.1 0-2.3 0-3.7-.1s-3-.2-4.9-.3c-1.9-.2-4.1-.4-6.7-.7v23.3h-13.6l.1-79c4.6-.3 8.4-.5 11.5-.7 3.1-.1 5.9-.3 8.2-.3 2.3-.1 4.4-.1 6.3-.1h5.8c3.4 0 6.3.3 8.6 1s4.2 1.6 5.6 2.9c1.4 1.2 2.5 2.8 3.1 4.6s.9 3.8.9 6v28.9c0 2.2-.3 4.2-.9 6s-1.6 3.4-3.1 4.6c-1.4 1.3-3.3 2.2-5.6 2.9-2.5.7-5.4 1-8.8 1m4.6-18.2v-22.3c0-1.1 0-2-.1-3 0-.9-.3-1.7-.7-2.3s-1.1-1.1-2-1.5c-1-.3-2.3-.5-4.2-.5h-15.8v37.5h14.9c2 0 3.5-.2 4.5-.6 1.1-.4 1.8-.9 2.3-1.7.5-.7.8-1.6.9-2.6.1-.8.2-1.8.2-3"/><path d="m46.7 241.4c1.4-1.5 4.1-2.2 8-2.2h29.1l1.1-1.1v-3.4c0-2.3-.7-3.9-2-4.8s-3.7-1.4-7.1-1.4h-27.3c-3.4 0-6.3.3-8.6 1s-4.2 1.6-5.6 2.9c-1.4 1.2-2.5 2.8-3.1 4.6s-.9 3.8-.9 6v9c0 .4 0 .7.1 1.1v19.4c0 .4-.1.8-.1 1.3v10.7c0 2.2.3 4.2.9 6s1.6 3.4 3.1 4.6c1.4 1.2 3.3 2.2 5.6 2.9s5.2 1 8.6 1h27.3c3.4 0 5.8-.5 7.1-1.4s2-2.6 2-4.8v-3.4l-1.1-1.1h-29.1c-3.9 0-6.6-.7-8-2.2s-2.1-3.4-2.1-5.7v-4.3c0-2.2.6-4.1 1.9-5.6 1.3-1.6 3.6-2.3 7.1-2.3h18.9v-10.1h-18.9c-3.5 0-5.9-.8-7.1-2.3-1.3-1.6-1.9-3.4-1.9-5.6v-2.6c0-2.8.7-4.7 2.1-6.2"/></g></g></svg>